<svg width="200" height="200" viewBox="0 0 200 200" fill="none" xmlns="http://www.w3.org/2000/svg">
<circle cx="100" cy="100" r="100" fill="#F7E56E"/>
<path d="M153.25 112.5C158.773 112.5 163.352 117.024 162.205 122.427C161.398 126.23 160.127 129.958 158.407 133.548C155.209 140.22 150.523 146.284 144.615 151.391C138.707 156.498 131.693 160.549 123.973 163.313C116.254 166.077 107.98 167.5 99.625 167.5C91.2696 167.5 82.9961 166.077 75.2768 163.313C67.5574 160.549 60.5435 156.498 54.6353 151.391C48.7272 146.284 44.0406 140.22 40.8432 133.548C39.1232 129.958 37.8523 126.23 37.0449 122.427C35.8981 117.024 40.4772 112.5 46 112.5L99.625 112.5H153.25Z" fill="#FFFEFE"/>
<path d="M95.134 149.442C94.638 149.442 94.254 149.306 93.982 149.034C93.726 148.746 93.598 148.354 93.598 147.858V133.89C93.598 133.378 93.734 132.994 94.006 132.738C94.278 132.466 94.662 132.33 95.158 132.33H100.942C102.798 132.33 104.23 132.778 105.238 133.674C106.246 134.554 106.75 135.794 106.75 137.394C106.75 138.434 106.518 139.33 106.054 140.082C105.606 140.834 104.95 141.41 104.086 141.81C103.222 142.21 102.174 142.41 100.942 142.41L101.158 142.05H101.95C102.606 142.05 103.174 142.21 103.654 142.53C104.15 142.85 104.582 143.354 104.95 144.042L106.75 147.378C106.942 147.714 107.03 148.042 107.014 148.362C106.998 148.682 106.878 148.946 106.654 149.154C106.43 149.346 106.102 149.442 105.67 149.442C105.238 149.442 104.886 149.354 104.614 149.178C104.342 148.986 104.102 148.698 103.894 148.314L101.47 143.85C101.182 143.306 100.838 142.946 100.438 142.77C100.054 142.578 99.558 142.482 98.95 142.482H96.67V147.858C96.67 148.354 96.542 148.746 96.286 149.034C96.03 149.306 95.646 149.442 95.134 149.442ZM96.67 140.202H100.414C101.518 140.202 102.35 139.978 102.91 139.53C103.486 139.066 103.774 138.378 103.774 137.466C103.774 136.57 103.486 135.898 102.91 135.45C102.35 134.986 101.518 134.754 100.414 134.754H96.67V140.202Z" fill="#FFD32D"/>
<path d="M153.75 114.907C153.75 117.34 127.21 122.25 99.9966 122.25C72.7833 122.25 44.75 117.34 44.75 114.907C44.75 112.474 72.7833 113.439 99.9966 113.439C127.21 113.439 153.75 112.474 153.75 114.907Z" fill="#E6E6E6"/>
<path d="M85.1759 113.451C86.3763 119.723 82.265 125.78 75.9931 126.981C69.7212 128.181 63.6637 124.07 62.4634 117.798C61.263 111.526 66.2626 108.124 72.4286 108.357C78.4404 105.322 83.9755 107.179 85.1759 113.451Z" fill="#E04438"/>
<ellipse cx="67.3806" cy="113.799" rx="2.0794" ry="3.59507" transform="rotate(20.6912 67.3806 113.799)" fill="#E8655B"/>
<path d="M70.8048 107.254C68.6244 107.672 65.6436 109.812 64.88 110.743C64.7252 111.903 67.6569 111.31 69.1421 110.869C69.345 111.929 69.9324 114.014 70.6592 113.875C71.386 113.736 71.8256 111.768 71.9546 110.802C72.7051 111.443 74.3879 112.69 75.1147 112.551C75.8415 112.412 75.0119 110.373 74.5062 109.371C75.5596 109.955 77.6316 110.939 77.4925 110.213C77.3534 109.486 76.2362 108.569 75.695 108.202C77.1158 108.244 79.6325 108.108 78.3336 107.226C77.0348 106.345 73.3789 106.762 71.7133 107.081C70.7179 106.8 71.8589 100.46 70.67 101.63C69.7189 102.565 70.3636 105.769 70.8048 107.254Z" fill="#53993B"/>
<path d="M84.0968 113.342C83.4546 110.208 81.3148 108.821 79.774 108.232C79.6605 108.188 79.5924 108.358 79.6951 108.423C81.6009 109.627 83.1296 111.772 83.8706 113.403C83.9209 113.514 84.1212 113.461 84.0968 113.342Z" fill="#FFFEFE"/>
<path d="M112.726 117.847C63.8428 141.454 88.503 122.497 107.127 109.66C107.618 109.322 108.132 109.012 108.701 108.835C114.018 107.181 116.195 113.836 114.297 116.698C113.94 117.237 113.309 117.566 112.726 117.847Z" fill="#E16338"/>
<path d="M107.683 111.472C107.891 114.224 109.53 115.702 110.806 116.434C110.911 116.494 111.003 116.335 110.911 116.255C109.434 114.963 108.381 112.958 107.916 111.443C107.88 111.326 107.673 111.351 107.683 111.472Z" fill="#A63D1A"/>
<path d="M101.342 115.599C101.561 117.723 102.8 118.919 103.83 119.548C103.933 119.612 104.028 119.454 103.938 119.371C102.802 118.322 101.978 116.784 101.576 115.567C101.538 115.451 101.33 115.478 101.342 115.599Z" fill="#A63D1A"/>
<path d="M96.2453 119.471C96.4626 121.059 97.3697 122.003 98.1763 122.535C98.2777 122.602 98.3749 122.446 98.2882 122.361C97.4435 121.531 96.8171 120.388 96.4774 119.437C96.4365 119.322 96.2288 119.351 96.2453 119.471Z" fill="#A63D1A"/>
<path d="M89.8329 124.078C89.9942 124.65 90.3075 125.061 90.6378 125.351C90.7291 125.431 90.8335 125.282 90.7562 125.188C90.4623 124.832 90.223 124.423 90.0482 124.035C89.9983 123.924 89.7999 123.961 89.8329 124.078Z" fill="#A63D1A"/>
<path d="M116.763 103.99L113.171 109.669C113.143 109.714 113.154 109.772 113.195 109.804C114.091 110.513 114.576 111.794 114.729 112.434C114.741 112.482 114.785 112.516 114.835 112.512L121.531 112.06C121.634 112.053 121.66 111.913 121.567 111.869L117.845 110.119C117.787 110.092 117.769 110.018 117.808 109.968L120.979 105.821C121.045 105.734 120.943 105.619 120.848 105.674L115.957 108.548C115.88 108.593 115.787 108.523 115.809 108.437L116.944 104.068C116.973 103.958 116.824 103.893 116.763 103.99Z" fill="#53993B"/>
<path d="M114.684 115.505C112.126 117.971 93.5061 126.192 84.9826 128.788C84.7367 128.863 84.7355 129.1 84.9925 129.1C87.9925 129.101 99.1146 124.599 111.11 118.614C114.283 117.367 114.822 116.578 114.913 115.605C114.922 115.502 114.759 115.432 114.684 115.505Z" fill="#AF5A3D"/>
<path d="M123.351 109.4C115.708 112.704 128.172 115.588 128.66 115.739L138.317 118.718C145.106 120.813 140.171 112.595 136.854 108.225C134.485 104.823 130.994 106.096 123.351 109.4Z" fill="#AF602D"/>
<path d="M125.129 110.381C118.264 113.338 129.464 115.931 129.902 116.067L138.58 118.744C144.681 120.627 140.242 113.256 137.259 109.336C135.129 106.284 131.993 107.424 125.129 110.381Z" fill="#C6743F"/>
<path d="M124.475 122.033C125.646 121.283 127.148 117.409 127.752 115.565C128.737 115.698 131.674 116.704 133.019 117.191C130.87 120.694 131.679 123.614 131.888 124.32C132.098 125.026 130.189 127.749 127.465 127.229C124.741 126.709 123.01 122.97 124.475 122.033Z" fill="#E4996D"/>
<path d="M124.347 122.1C125.572 121.452 127.17 117.451 127.752 115.565C127.827 115.553 127.991 115.554 128.045 115.656C128.112 115.783 127.578 117.862 126.871 119.46C126.164 121.058 125.06 122.213 124.684 122.738C124.384 123.158 124.248 123.458 124.053 123.398C123.926 123.466 123.686 122.58 124.347 122.1Z" fill="#9D6E50"/>
<path d="M59.75 119.25C51.062 117.512 45.75 117.75 42.75 113.25C43.0833 116.417 42.4884 128.23 50.5 132C76 144 73 131.5 101.5 132C105.122 132.064 128.5 134.833 139 133.5C147.333 131 162.45 118.75 161.25 116.75C160.05 114.75 158.083 113.583 157.25 113.25C151.75 119.75 114.75 121.75 110.75 122.25C106.75 122.75 72.25 121.75 59.75 119.25Z" fill="#FFFEFE"/>
<path d="M72.7197 85.789L70.0131 98.75H132.4L127.934 84.5739C143.768 74.0431 146.49 63.9173 142.144 56.8968C137.797 49.8763 120.22 53.1165 115.619 59.597C116.431 47.1761 111.289 33 99.2442 33C85.982 33 80.0275 49.8763 82.5987 56.8968C67.7125 42.5857 56.3212 56.3568 55.6682 61.6222C54.0443 74.7182 64.5097 80.5236 72.7197 85.789Z" fill="#FFFEFE"/>
<path d="M90.75 68.25C90.75 67.5596 91.3096 67 92 67C92.6904 67 93.25 67.5596 93.25 68.25V98.75H90.75V68.25Z" fill="#E6E6E6"/>
<path d="M106.25 68.25C106.25 67.5596 106.81 67 107.5 67C108.19 67 108.75 67.5596 108.75 68.25V98.75H106.25V68.25Z" fill="#E6E6E6"/>
</svg>
